<mxfile host="app.diagrams.net" modified="2021-03-18T06:27:25.535Z" agent="5.0 (X11; Linux x86_64) AppleWebKit/537.36 (KHTML, like Gecko) Chrome/88.0.4324.182 Safari/537.36" etag="HJ25ugWNoW4oNGX1tWTW" version="14.4.8" type="github">
  <diagram id="w1uXHXWBDEdZspCU-QIz" name="Page-1">
    <mxGraphModel dx="1422" dy="741" grid="1" gridSize="10" guides="1" tooltips="1" connect="1" arrows="1" fold="1" page="1" pageScale="1" pageWidth="827" pageHeight="1169" math="0" shadow="0">
      <root>
        <mxCell id="0" />
        <mxCell id="1" parent="0" />
        <mxCell id="2YAwMXKfWJuSnj-P2vMN-7" style="edgeStyle=orthogonalEdgeStyle;rounded=0;orthogonalLoop=1;jettySize=auto;html=1;exitX=0.5;exitY=0;exitDx=0;exitDy=0;entryX=0;entryY=0.5;entryDx=0;entryDy=0;startArrow=classic;startFill=1;" edge="1" parent="1" source="2YAwMXKfWJuSnj-P2vMN-2" target="2YAwMXKfWJuSnj-P2vMN-3">
          <mxGeometry relative="1" as="geometry" />
        </mxCell>
        <mxCell id="2YAwMXKfWJuSnj-P2vMN-9" style="edgeStyle=orthogonalEdgeStyle;rounded=0;orthogonalLoop=1;jettySize=auto;html=1;entryX=0;entryY=0.5;entryDx=0;entryDy=0;dashed=1;startArrow=none;startFill=0;" edge="1" parent="1" source="2YAwMXKfWJuSnj-P2vMN-2" target="2YAwMXKfWJuSnj-P2vMN-4">
          <mxGeometry relative="1" as="geometry">
            <Array as="points">
              <mxPoint x="200" y="470" />
            </Array>
          </mxGeometry>
        </mxCell>
        <mxCell id="2YAwMXKfWJuSnj-P2vMN-18" value="&lt;b&gt;Configure&amp;nbsp;&lt;br&gt;Connection&amp;nbsp;&lt;/b&gt;" style="edgeLabel;html=1;align=center;verticalAlign=middle;resizable=0;points=[];" vertex="1" connectable="0" parent="2YAwMXKfWJuSnj-P2vMN-9">
          <mxGeometry x="-0.2957" y="-2" relative="1" as="geometry">
            <mxPoint x="19" y="-2" as="offset" />
          </mxGeometry>
        </mxCell>
        <mxCell id="2YAwMXKfWJuSnj-P2vMN-16" style="edgeStyle=orthogonalEdgeStyle;rounded=0;orthogonalLoop=1;jettySize=auto;html=1;entryX=0;entryY=0.5;entryDx=0;entryDy=0;entryPerimeter=0;startArrow=classic;startFill=1;endArrow=classic;endFill=1;" edge="1" parent="1" source="2YAwMXKfWJuSnj-P2vMN-2" target="2YAwMXKfWJuSnj-P2vMN-14">
          <mxGeometry relative="1" as="geometry">
            <Array as="points">
              <mxPoint x="120" y="380" />
              <mxPoint x="120" y="625" />
            </Array>
          </mxGeometry>
        </mxCell>
        <mxCell id="2YAwMXKfWJuSnj-P2vMN-2" value="&lt;b&gt;Controller&lt;/b&gt;" style="shape=process;whiteSpace=wrap;html=1;backgroundOutline=1;" vertex="1" parent="1">
          <mxGeometry x="140" y="350" width="120" height="60" as="geometry" />
        </mxCell>
        <mxCell id="2YAwMXKfWJuSnj-P2vMN-8" style="edgeStyle=orthogonalEdgeStyle;rounded=0;orthogonalLoop=1;jettySize=auto;html=1;exitX=0.5;exitY=1;exitDx=0;exitDy=0;entryX=0.5;entryY=0;entryDx=0;entryDy=0;startArrow=classic;startFill=1;" edge="1" parent="1" source="2YAwMXKfWJuSnj-P2vMN-3" target="2YAwMXKfWJuSnj-P2vMN-4">
          <mxGeometry relative="1" as="geometry" />
        </mxCell>
        <mxCell id="2YAwMXKfWJuSnj-P2vMN-3" value="&lt;b&gt;resultprocesser&lt;/b&gt;" style="shape=process;whiteSpace=wrap;html=1;backgroundOutline=1;" vertex="1" parent="1">
          <mxGeometry x="370" y="280" width="120" height="60" as="geometry" />
        </mxCell>
        <mxCell id="2YAwMXKfWJuSnj-P2vMN-4" value="&lt;b&gt;dalservices&lt;/b&gt;" style="shape=process;whiteSpace=wrap;html=1;backgroundOutline=1;" vertex="1" parent="1">
          <mxGeometry x="370" y="440" width="120" height="60" as="geometry" />
        </mxCell>
        <mxCell id="2YAwMXKfWJuSnj-P2vMN-17" style="edgeStyle=orthogonalEdgeStyle;rounded=0;orthogonalLoop=1;jettySize=auto;html=1;entryX=1;entryY=0.5;entryDx=0;entryDy=0;startArrow=classic;startFill=1;endArrow=classic;endFill=1;" edge="1" parent="1" source="2YAwMXKfWJuSnj-P2vMN-10" target="2YAwMXKfWJuSnj-P2vMN-3">
          <mxGeometry relative="1" as="geometry">
            <Array as="points">
              <mxPoint x="590" y="310" />
              <mxPoint x="590" y="310" />
            </Array>
          </mxGeometry>
        </mxCell>
        <mxCell id="2YAwMXKfWJuSnj-P2vMN-10" value="&lt;b&gt;IDP&lt;/b&gt;" style="shape=card;whiteSpace=wrap;html=1;" vertex="1" parent="1">
          <mxGeometry x="690" y="270" width="60" height="70" as="geometry" />
        </mxCell>
        <mxCell id="2YAwMXKfWJuSnj-P2vMN-15" style="edgeStyle=orthogonalEdgeStyle;rounded=0;orthogonalLoop=1;jettySize=auto;html=1;entryX=0.5;entryY=1;entryDx=0;entryDy=0;startArrow=classic;startFill=1;endArrow=classic;endFill=1;" edge="1" parent="1" source="2YAwMXKfWJuSnj-P2vMN-14" target="2YAwMXKfWJuSnj-P2vMN-4">
          <mxGeometry relative="1" as="geometry" />
        </mxCell>
        <mxCell id="2YAwMXKfWJuSnj-P2vMN-14" value="&lt;b&gt;DataBase&amp;nbsp;&lt;br&gt;Repo.&lt;/b&gt;" style="shape=cylinder3;whiteSpace=wrap;html=1;boundedLbl=1;backgroundOutline=1;size=15;" vertex="1" parent="1">
          <mxGeometry x="400" y="585" width="60" height="80" as="geometry" />
        </mxCell>
      </root>
    </mxGraphModel>
  </diagram>
</mxfile>
